<svg xmlns="http://www.w3.org/2000/svg" viewBox="0 0 512 512" role="img" aria-label="星尘快递图标">
  <defs>
    <radialGradient id="bg" cx="35%" cy="28%" r="78%">
      <stop offset="0" stop-color="#123b4f"/>
      <stop offset="0.54" stop-color="#071827"/>
      <stop offset="1" stop-color="#03070d"/>
    </radialGradient>
    <linearGradient id="ship" x1="150" y1="155" x2="350" y2="330">
      <stop offset="0" stop-color="#f0fdff"/>
      <stop offset="0.52" stop-color="#46e6ff"/>
      <stop offset="1" stop-color="#ffb94f"/>
    </linearGradient>
    <filter id="glow" x="-40%" y="-40%" width="180%" height="180%">
      <feGaussianBlur stdDeviation="10" result="blur"/>
      <feMerge>
        <feMergeNode in="blur"/>
        <feMergeNode in="SourceGraphic"/>
      </feMerge>
    </filter>
  </defs>
  <rect width="512" height="512" rx="112" fill="url(#bg)"/>
  <circle cx="393" cy="124" r="6" fill="#ffdf8a" opacity=".85"/>
  <circle cx="122" cy="362" r="5" fill="#46e6ff" opacity=".75"/>
  <circle cx="334" cy="392" r="4" fill="#7cf59b" opacity=".8"/>
  <path d="M110 288c76-20 138-55 218-128-30 90-70 147-128 218l-12-66-78-24Z" fill="rgba(70,230,255,.2)" filter="url(#glow)"/>
  <path d="M362 144 148 260l91 32 31 91 116-214c8-15-9-32-24-25Z" fill="url(#ship)" filter="url(#glow)"/>
  <path d="M236 275 148 260l58 58 64 65-31-91Z" fill="#d986ff" opacity=".42"/>
  <circle cx="288" cy="244" r="19" fill="#061019" opacity=".9"/>
  <path d="M92 328c44-20 77-21 110-4" fill="none" stroke="#46e6ff" stroke-width="14" stroke-linecap="round" opacity=".55"/>
  <path d="M116 364c33-14 60-14 86-2" fill="none" stroke="#ffb94f" stroke-width="10" stroke-linecap="round" opacity=".72"/>
</svg>
